# xmcd
#
# Track frame offsets:
#	150
#	14795
#	28997
#	44435
#	56562
#	67350
#	78250
#	89337
#	101650
#	110695
#	123625
#	137517
#	146940
#	155825
#	169325
#
# Disc length: 2405 seconds
#
# Revision: 5
# Processed by: cddbd v1.5.2PL0 Copyright (c) Steve Scherf et al.
# Submitted via: EasyCDDAExtractor 16.0.6.1
#
DISCID=ea09630f
DTITLE=Mance Lipscomb - Texas Blues Guitar
DYEAR=1994
DGENRE=Blues
TTITLE0=Ain't It Hard
TTITLE1=Big Boss Man
TTITLE2='Bout a Spoonful
TTITLE3=Freddie
TTITLE4=Knockin' Down Windows
TTITLE5=Mama Don't Allow
TTITLE6=Mama, Let Me Lay It on You
TTITLE7=Motherless Children
TTITLE8=Rag In G
TTITLE9=Shake, Shake Mama (Cherry Ball)
TTITLE10=So Different Blues
TTITLE11=Sugar Babe
TTITLE12=Take Me Back
TTITLE13=Willie Poor Boy
TTITLE14=You Got to Reap What You Sow
EXTD=
EXTT0=
EXTT1=
EXTT2=
EXTT3=
EXTT4=
EXTT5=
EXTT6=
EXTT7=
EXTT8=
EXTT9=
EXTT10=
EXTT11=
EXTT12=
EXTT13=
EXTT14=
PLAYORDER=
